REM DIRINDEX 1\2,1\3,1\4,1\5
REM DIRNAME cjc006,folder01,folder02,folder03,folder04
TITLE ""
FILE "No05103.mp3" MP3
  TRACK 01 AUDIO
    TITLE "3:cjc006_06922"
    INDEX 01 00:00:00
  TRACK 02 AUDIO
    TITLE "0:"
    INDEX 01 00:03:49
  TRACK 03 AUDIO
    TITLE "5:cjc006_06923"
    INDEX 01 00:04:21
  TRACK 04 AUDIO
    TITLE "0:"
    INDEX 01 00:05:36
  TRACK 05 AUDIO
    TITLE "4:cjc006_06924"
    INDEX 01 00:06:10
  TRACK 06 AUDIO
    TITLE "0:"
    INDEX 01 00:10:06
